<svg width="714" height="178" viewBox="0 0 714 178" fill="none" xmlns="http://www.w3.org/2000/svg">
<path d="M448.5 167.7V132.8H452.5V145.7H452.8C453.1 145.2 453.5 144.7 454 144C454.5 143.3 455.3 142.7 456.3 142.1C457.3 141.5 458.6 141.3 460.3 141.3C462.5 141.3 464.4 141.9 466.1 143C467.8 144.1 469.1 145.7 470 147.7C470.9 149.7 471.4 152.1 471.4 154.9C471.4 157.7 470.9 160.1 470 162.1C469.1 164.1 467.8 165.7 466.1 166.8C464.4 167.9 462.5 168.5 460.3 168.5C458.6 168.5 457.3 168.2 456.3 167.7C455.3 167.2 454.5 166.5 454 165.8C453.5 165.1 453 164.5 452.7 164H452.2V168H448.5V167.7ZM452.5 154.6C452.5 156.6 452.8 158.3 453.4 159.8C454 161.3 454.8 162.5 455.9 163.3C457 164.1 458.4 164.6 460 164.6C461.7 164.6 463.1 164.2 464.2 163.3C465.3 162.4 466.2 161.2 466.8 159.7C467.4 158.2 467.7 156.5 467.7 154.6C467.7 152.8 467.4 151.1 466.9 149.6C466.3 148.1 465.5 146.9 464.4 146.1C463.3 145.2 461.9 144.8 460.1 144.8C458.5 144.8 457.1 145.2 456 146C454.9 146.8 454 148 453.5 149.4C452.8 150.9 452.5 152.6 452.5 154.6Z" fill="white"/>
<path d="M478.5 177.5C477.8 177.5 477.2 177.4 476.7 177.3C476.2 177.2 475.8 177.1 475.6 177L476.6 173.5C477.6 173.7 478.4 173.8 479.2 173.8C480 173.8 480.6 173.4 481.2 172.8C481.8 172.2 482.3 171.2 482.8 169.9L483.6 167.9L473.9 141.6H478.3L485.5 162.5H485.8L493 141.6H497.4L486.3 171.6C485.8 173 485.2 174.1 484.4 175C483.7 175.9 482.8 176.6 481.8 177C480.8 177.3 479.7 177.5 478.5 177.5Z" fill="white"/>
<path d="M532.1 142.4C531.9 140.9 531.3 139.8 530.1 138.9C528.9 138.1 527.4 137.7 525.5 137.7C524.2 137.7 523.1 137.9 522.1 138.3C521.1 138.7 520.4 139.2 519.9 139.9C519.4 140.6 519.1 141.4 519.1 142.2C519.1 142.9 519.3 143.6 519.6 144.1C519.9 144.6 520.4 145.1 521 145.5C521.6 145.9 522.2 146.2 522.9 146.4C523.6 146.6 524.3 146.9 525 147L528.3 147.8C529.6 148.1 530.9 148.5 532.1 149C533.3 149.5 534.4 150.2 535.4 151C536.4 151.8 537.1 152.8 537.7 153.9C538.3 155 538.6 156.3 538.6 157.9C538.6 159.9 538.1 161.7 537 163.3C536 164.9 534.4 166.1 532.5 166.9C530.5 167.8 528.1 168.2 525.3 168.2C522.6 168.2 520.2 167.8 518.2 166.9C516.2 166.1 514.6 164.8 513.5 163.2C512.4 161.6 511.8 159.6 511.7 157.3H517.9C518 158.5 518.4 159.5 519 160.3C519.6 161.1 520.5 161.7 521.6 162.1C522.7 162.5 523.9 162.7 525.2 162.7C526.6 162.7 527.8 162.5 528.8 162.1C529.8 161.7 530.7 161.1 531.2 160.4C531.7 159.7 532.1 158.8 532.1 157.8C532.1 156.9 531.8 156.1 531.3 155.5C530.8 154.9 530 154.4 529.1 154C528.2 153.6 527.1 153.2 525.8 152.9L521.8 151.9C518.9 151.2 516.7 150 515 148.5C513.3 147 512.5 145 512.5 142.5C512.5 140.4 513.1 138.6 514.2 137.1C515.3 135.6 516.8 134.4 518.8 133.5C520.7 132.6 522.9 132.2 525.4 132.2C527.9 132.2 530.1 132.6 531.9 133.5C533.8 134.4 535.2 135.5 536.3 137.1C537.4 138.6 537.9 140.4 538 142.3H532.1V142.4Z" fill="white"/>
<path d="M554.5 168.2C551.9 168.2 549.6 167.6 547.8 166.5C546 165.4 544.5 163.8 543.5 161.7C542.5 159.6 542 157.3 542 154.7C542 152 542.5 149.7 543.5 147.7C544.5 145.7 546 144.1 547.8 142.9C549.7 141.8 551.9 141.2 554.4 141.2C556.5 141.2 558.4 141.6 560.1 142.4C561.7 143.2 563.1 144.3 564 145.7C565 147.1 565.5 148.8 565.7 150.7H559.8C559.6 149.4 559 148.4 558.1 147.5C557.2 146.7 556 146.2 554.5 146.2C553.2 146.2 552.1 146.5 551.2 147.2C550.2 147.9 549.5 148.8 549 150.1C548.5 151.4 548.2 152.9 548.2 154.6C548.2 156.4 548.5 157.9 549 159.2C549.5 160.5 550.3 161.5 551.2 162.1C552.1 162.8 553.3 163.1 554.5 163.1C555.4 163.1 556.2 162.9 556.9 162.6C557.6 162.3 558.2 161.8 558.7 161.1C559.2 160.4 559.5 159.6 559.7 158.7H565.6C565.5 160.6 564.9 162.2 564 163.6C563.1 165 561.8 166.1 560.1 166.9C558.4 167.7 556.7 168.2 554.5 168.2Z" fill="white"/>
<path d="M577.4 168.2C575.7 168.2 574.2 167.9 572.9 167.3C571.6 166.7 570.5 165.8 569.8 164.6C569 163.4 568.6 162 568.6 160.3C568.6 158.8 568.9 157.6 569.4 156.6C569.9 155.6 570.7 154.9 571.6 154.3C572.5 153.7 573.6 153.3 574.8 153C576 152.7 577.2 152.5 578.5 152.3C580 152.1 581.3 152 582.2 151.9C583.2 151.8 583.9 151.6 584.3 151.3C584.7 151 585 150.6 585 150V149.9C585 148.6 584.6 147.6 583.9 146.9C583.1 146.2 582 145.8 580.6 145.8C579.1 145.8 577.9 146.1 577 146.8C576.1 147.5 575.5 148.2 575.2 149.1L569.4 148.3C569.9 146.7 570.6 145.4 571.6 144.3C572.6 143.2 573.9 142.4 575.4 141.9C576.9 141.4 578.6 141.1 580.4 141.1C581.7 141.1 582.9 141.2 584.2 141.5C585.4 141.8 586.6 142.3 587.6 143C588.6 143.7 589.5 144.6 590.1 145.8C590.7 147 591 148.4 591 150.1V167.6H585.1V164H584.9C584.5 164.7 584 165.4 583.3 166C582.6 166.6 581.8 167.1 580.8 167.5C579.9 168 578.7 168.2 577.4 168.2ZM579 163.7C580.2 163.7 581.3 163.5 582.2 163C583.1 162.5 583.8 161.8 584.3 161C584.8 160.2 585 159.3 585 158.3V155.2C584.8 155.4 584.5 155.5 584 155.6C583.5 155.7 583 155.9 582.5 156C581.9 156.1 581.4 156.2 580.8 156.3C580.2 156.4 579.8 156.4 579.4 156.5C578.5 156.6 577.7 156.8 576.9 157.1C576.1 157.4 575.6 157.8 575.2 158.3C574.8 158.8 574.6 159.5 574.6 160.3C574.6 161.4 575 162.3 575.8 162.9C576.6 163.4 577.7 163.7 579 163.7Z" fill="white"/>
<path d="M602.6 132.8V167.7H596.4V132.8H602.6Z" fill="white"/>
<path d="M619.6 168.2C617 168.2 614.7 167.7 612.8 166.6C610.9 165.5 609.4 163.9 608.4 161.9C607.4 159.9 606.9 157.5 606.9 154.8C606.9 152.1 607.4 149.7 608.4 147.7C609.4 145.7 610.9 144.1 612.7 142.9C614.6 141.8 616.7 141.2 619.2 141.2C620.8 141.2 622.3 141.5 623.8 142C625.2 142.5 626.5 143.3 627.6 144.4C628.7 145.5 629.6 146.9 630.2 148.5C630.8 150.2 631.2 152.1 631.2 154.4V156.3H609.7V152.1H625.2C625.2 150.9 624.9 149.9 624.4 148.9C623.9 148 623.2 147.2 622.3 146.7C621.4 146.2 620.4 145.9 619.2 145.9C617.9 145.9 616.8 146.2 615.9 146.8C614.9 147.4 614.2 148.2 613.7 149.2C613.2 150.2 612.9 151.3 612.9 152.4V156C612.9 157.5 613.2 158.8 613.7 159.9C614.2 161 615 161.8 616 162.4C617 163 618.2 163.3 619.5 163.3C620.4 163.3 621.2 163.2 621.9 162.9C622.6 162.6 623.3 162.3 623.8 161.8C624.3 161.3 624.7 160.7 625 159.9L630.8 160.5C630.4 162 629.7 163.3 628.7 164.5C627.7 165.6 626.4 166.5 624.8 167.1C623.2 167.7 621.6 168.2 619.6 168.2Z" fill="white"/>
<path d="M648.8 141.5V146.3H633.3V141.5H648.8ZM637.2 167.7V139C637.2 137.2 637.6 135.8 638.3 134.6C639 133.4 640 132.6 641.3 132C642.5 131.4 643.9 131.1 645.4 131.1C646.5 131.1 647.4 131.2 648.2 131.4C649 131.6 649.6 131.7 650 131.9L648.8 136.7C648.5 136.6 648.2 136.5 647.8 136.5C647.4 136.4 647 136.4 646.5 136.4C645.4 136.4 644.5 136.7 644.1 137.2C643.6 137.8 643.4 138.5 643.4 139.6V167.8H637.2V167.7Z" fill="white"/>
<path d="M658.8 132.8V167.7H652.6V132.8H658.8Z" fill="white"/>
<path d="M675.8 168.2C673.2 168.2 670.9 167.7 669 166.6C667.1 165.5 665.6 163.9 664.6 161.9C663.6 159.9 663.1 157.5 663.1 154.8C663.1 152.1 663.6 149.7 664.6 147.7C665.6 145.7 667.1 144.1 668.9 142.9C670.8 141.8 672.9 141.2 675.4 141.2C677 141.2 678.5 141.5 680 142C681.4 142.5 682.7 143.3 683.8 144.4C684.9 145.5 685.8 146.9 686.4 148.5C687 150.2 687.4 152.1 687.4 154.4V156.3H666V152.1H681.5C681.5 150.9 681.2 149.9 680.7 148.9C680.2 148 679.5 147.2 678.6 146.7C677.7 146.2 676.7 145.9 675.5 145.9C674.2 145.9 673.1 146.2 672.2 146.8C671.2 147.4 670.5 148.2 670 149.2C669.5 150.2 669.2 151.3 669.2 152.4V156C669.2 157.5 669.5 158.8 670 159.9C670.5 161 671.3 161.8 672.3 162.4C673.3 163 674.5 163.3 675.8 163.3C676.7 163.3 677.5 163.2 678.2 162.9C678.9 162.6 679.6 162.3 680.1 161.8C680.6 161.3 681 160.7 681.3 159.9L687.1 160.5C686.7 162 686 163.3 685 164.5C684 165.6 682.7 166.5 681.1 167.1C679.5 167.7 677.8 168.2 675.8 168.2Z" fill="white"/>
<path d="M696.2 141.5L701.5 151.2L706.9 141.5H713.4L705.5 154.6L713.5 167.7H707L701.5 158.3L696 167.7H689.5L697.5 154.6L689.7 141.5H696.2Z" fill="white"/>
<path d="M171.5 73.9C171.5 73.8 171.5 73.8 171.5 73.9C171.3 73.2 171.2 72.7 171 72.1C171 72 170.9 71.9 170.9 71.7C170.8 71.4 170.7 71 170.5 70.7C170.4 70.4 170.3 70.1 170.1 69.8C170.1 69.7 170 69.7 170 69.6C169.3 68 168.6 66.6 167.7 65.4C165 61.2 161.1 57.6 156 55.1C154.7 54.5 153.4 53.9 151.9 53.4C151.8 51.7 151.7 50.1 151.4 48.5C150.8 44.7 149.9 42.4 149.9 42.4C149.1 39.8 147.9 37.5 146.7 35.4C146.6 35.2 146.4 34.9 146.3 34.7C146.3 34.6 146.2 34.6 146.2 34.5C144.3 31.5 142 28.8 139.4 26.5C137.8 25.1 136.7 24.3 136.7 24.3C127.6 17.6 115.7 15 103.8 18.4C103.5 17.9 92.8 0 69.2 0C56.6 0 44 6.3 37.3 14.6C37.2 14.7 37.1 14.8 37 14.9L36.9 15C31.6 21.4 28.1 29.7 27.7 39.6V39.7C27 39.6 25.4 40 25.4 40C1.29997 47.6 -4.80003 72.8 3.49997 91.7C3.59997 91.8 3.59997 91.9 3.69997 92.1C3.79997 92.3 3.89997 92.5 3.89997 92.6C6.99997 99.2 11.7 104.5 17.4 108.1C17.5 108.1 17.5 108.2 17.6 108.2C18 108.4 18.3 108.6 18.7 108.9C18.9 109 19 109.1 19.2 109.2C19.5 109.4 19.8 109.5 20.1 109.7C20.3 109.8 20.5 109.9 20.7 110C21 110.2 21.3 110.3 21.6 110.4C21.8 110.5 21.9 110.6 22.1 110.6C26.9 112.7 32.1 113.8 37.6 113.8C37.8 113.8 38 113.8 38.2 113.8H74.7C78.7 113.8 81.4 113.8 81.6 113.8C81.6 113.8 121.4 113.8 136.8 113.8H136.9H141H141.1C141.3 113.8 141.5 113.8 141.7 113.8H141.8C141.8 113.8 141.8 113.8 141.9 113.8C142 113.8 142.1 113.8 142.2 113.8C149.9 113.7 156.2 111.3 161 107.3C161.1 107.2 161.2 107.2 161.3 107.1C161.4 107 161.6 106.9 161.7 106.7C161.8 106.6 161.8 106.6 161.9 106.5C162.3 106.1 162.8 105.7 163.2 105.3C163.4 105.1 163.6 104.9 163.8 104.7C164 104.5 164.2 104.3 164.4 104.1C164.6 103.9 164.8 103.7 164.9 103.5C165.2 103.1 165.5 102.8 165.8 102.4C166 102.2 166.1 102 166.3 101.8C166.5 101.5 166.7 101.2 166.9 100.9C167 100.8 167.1 100.6 167.2 100.5C167.5 100 167.9 99.4 168.2 98.9C168.3 98.7 168.4 98.6 168.5 98.4C168.7 98 169 97.5 169.2 97.1C169.4 96.8 169.5 96.4 169.7 96.1C169.8 95.9 169.9 95.6 170 95.4C170.3 94.8 170.5 94.2 170.7 93.5V93.4V93.3C172.9 87 173.2 80.2 171.5 73.9ZM56 79.3H47C47 79.3 45.7 79.3 43.7 79.3C39.4 79.3 31.9 79.3 26.8 79.3C27.3 78.8 28 78 28.8 77.3L71.8 34.3L79.6 42.1C79.6 42.1 80.9 43.4 83.2 45.7L85 47.5C88.4 50.9 93.2 55.7 98.6 61.1L112 47.7L124.5 60.2L132.7 68.4L143.6 79.3H56Z" fill="white"/>
<path d="M257.6 47.4999H245.6C245.3 45.4999 244.6 43.7999 243.7 42.2999C242.8 40.7999 241.6 39.4999 240.3 38.3999C238.9 37.2999 237.4 36.4999 235.7 35.9999C234 35.4999 232.1 35.1999 230.1 35.1999C226.5 35.1999 223.4 36.0999 220.6 37.8999C217.9 39.6999 215.7 42.2999 214.1 45.6999C212.5 49.0999 211.8 53.2999 211.8 58.1999C211.8 63.1999 212.6 67.3999 214.1 70.7999C215.7 74.1999 217.8 76.7999 220.6 78.4999C223.4 80.1999 226.5 81.0999 230 81.0999C232 81.0999 233.8 80.7999 235.5 80.2999C237.2 79.7999 238.8 78.9999 240.1 77.9999C241.5 76.9999 242.6 75.6999 243.6 74.1999C244.5 72.6999 245.2 70.9999 245.6 69.0999L257.6 69.1999C257.2 72.2999 256.2 75.1999 254.7 77.9999C253.2 80.6999 251.3 83.0999 248.9 85.1999C246.5 87.2999 243.7 88.8999 240.5 90.0999C237.3 91.2999 233.8 91.7999 229.9 91.7999C224.1 91.7999 219 90.4999 214.5 87.7999C210 85.0999 206.4 81.2999 203.8 76.2999C201.2 71.2999 199.9 65.1999 199.9 58.1999C199.9 51.0999 201.2 45.0999 203.8 40.0999C206.4 35.0999 210 31.1999 214.5 28.5999C219 25.8999 224.1 24.5999 229.8 24.5999C233.4 24.5999 236.8 25.0999 240 26.0999C243.1 27.0999 245.9 28.5999 248.4 30.5999C250.9 32.5999 252.9 34.9999 254.5 37.7999C256.1 40.6999 257.1 43.8999 257.6 47.4999Z" fill="white"/>
<path d="M279.6 25.5V91H268V25.5H279.6Z" fill="white"/>
<path d="M312.9 91.8998C308.1 91.8998 304 90.7999 300.4 88.6999C296.8 86.5999 294.2 83.5999 292.2 79.7999C290.3 75.9999 289.3 71.5999 289.3 66.4999C289.3 61.3999 290.3 56.9999 292.2 53.1999C294.1 49.3999 296.9 46.3999 300.4 44.2999C303.9 42.1999 308.1 41.0999 312.9 41.0999C317.7 41.0999 321.8 42.1999 325.4 44.2999C329 46.3999 331.6 49.3999 333.6 53.1999C335.5 56.9999 336.5 61.4999 336.5 66.4999C336.5 71.4999 335.5 75.9999 333.6 79.7999C331.7 83.5999 328.9 86.4999 325.4 88.6999C321.9 90.8999 317.7 91.8998 312.9 91.8998ZM312.9 82.5999C315.5 82.5999 317.7 81.8998 319.4 80.3998C321.1 78.9998 322.5 76.9999 323.3 74.5999C324.2 72.1999 324.6 69.4999 324.6 66.4999C324.6 63.4999 324.2 60.7999 323.3 58.2999C322.4 55.8999 321.1 53.8999 319.4 52.4999C317.7 51.0999 315.5 50.2999 312.9 50.2999C310.2 50.2999 308 50.9999 306.3 52.4999C304.6 53.9999 303.2 55.8999 302.4 58.2999C301.5 60.6999 301.1 63.4999 301.1 66.4999C301.1 69.4999 301.5 72.1999 302.4 74.5999C303.3 76.9999 304.6 78.9998 306.3 80.3998C308 81.7998 310.3 82.5999 312.9 82.5999Z" fill="white"/>
<path d="M377.5 70.2998V41.7998H389V90.8998H377.8V82.1998H377.3C376.2 84.8998 374.4 87.1998 371.9 88.8998C369.4 90.5998 366.3 91.4998 362.6 91.4998C359.4 91.4998 356.5 90.7998 354.1 89.2998C351.6 87.8998 349.7 85.7998 348.3 82.9998C346.9 80.1998 346.2 76.8998 346.2 72.9998V41.7998H357.8V71.2998C357.8 74.3998 358.7 76.8998 360.4 78.6998C362.1 80.4998 364.3 81.3998 367.1 81.3998C368.8 81.3998 370.5 80.9998 372.1 80.1998C373.7 79.3998 375 78.0998 376 76.4998C377 74.7998 377.5 72.7998 377.5 70.2998Z" fill="white"/>
<path d="M419.1 91.8C415.2 91.8 411.8 90.8 408.7 88.8C405.6 86.8 403.2 83.9 401.5 80.2C399.7 76.4 398.8 71.8 398.8 66.5C398.8 61 399.7 56.4 401.5 52.7C403.3 48.9 405.7 46.1 408.8 44.2C411.9 42.3 415.3 41.3 419.1 41.3C422 41.3 424.3 41.8 426.2 42.8C428.1 43.8 429.5 44.9 430.6 46.3C431.7 47.7 432.5 48.9 433.1 50.1H433.6V25.5H445.2V91H433.8V83.3H433.1C432.5 84.5 431.6 85.8 430.5 87.1C429.4 88.4 427.9 89.6 426 90.5C424.3 91.3 422 91.8 419.1 91.8ZM422.4 82.3C424.8 82.3 426.9 81.6 428.7 80.3C430.4 79 431.7 77.1 432.6 74.7C433.5 72.3 433.9 69.5 433.9 66.4C433.9 63.2 433.5 60.5 432.6 58.1C431.7 55.7 430.4 53.9 428.7 52.6C427 51.3 424.9 50.6 422.4 50.6C419.8 50.6 417.7 51.3 415.9 52.6C414.2 53.9 412.9 55.8 412 58.2C411.1 60.6 410.7 63.3 410.7 66.3C410.7 69.4 411.1 72.1 412 74.5C412.9 76.9 414.2 78.8 415.9 80.2C417.7 81.6 419.8 82.3 422.4 82.3Z" fill="white"/>
<path d="M463.5 34.8999C461.7 34.8999 460.1 34.2999 458.8 33.0999C457.5 31.8999 456.8 30.3999 456.8 28.6999C456.8 26.9999 457.5 25.4999 458.8 24.1999C460.1 22.9999 461.7 22.3999 463.5 22.3999C465.4 22.3999 466.9 22.9999 468.2 24.1999C469.5 25.3999 470.2 26.8999 470.2 28.6999C470.2 30.3999 469.5 31.8999 468.2 33.0999C466.9 34.1999 465.3 34.8999 463.5 34.8999ZM457.7 90.8999V41.7999H469.3V90.8999H457.7Z" fill="white"/>
<path d="M481.1 90.8998V41.7999H492.2V50.0999H492.8C493.8 47.2999 495.5 45.0999 497.9 43.4999C500.3 41.8999 503.1 41.0999 506.4 41.0999C509.7 41.0999 512.5 41.8999 514.8 43.4999C517.1 45.0999 518.7 47.2999 519.6 50.0999H520.1C521.2 47.3999 523 45.1999 525.6 43.5999C528.2 41.9999 531.3 41.1999 534.8 41.1999C539.3 41.1999 543 42.5999 545.9 45.4999C548.8 48.3999 550.2 52.4999 550.2 57.9999V90.9999H538.6V59.7999C538.6 56.7999 537.8 54.4999 536.2 53.0999C534.6 51.6999 532.6 50.9999 530.3 50.9999C527.5 50.9999 525.3 51.8999 523.8 53.5999C522.2 55.2999 521.5 57.5999 521.5 60.3999V90.9999H510.2V59.3999C510.2 56.8999 509.4 54.7999 507.9 53.2999C506.4 51.7999 504.4 50.9999 501.9 50.9999C500.2 50.9999 498.7 51.3999 497.4 52.2999C496.1 53.1999 494.9 54.2999 494.1 55.7999C493.3 57.2999 492.9 59.0999 492.9 61.0999V90.9999H481.1V90.8998Z" fill="white"/>
<path d="M576 91.8998C572.9 91.8998 570.1 91.2998 567.6 90.1998C565.1 89.0998 563.2 87.3998 561.7 85.1998C560.3 82.9998 559.5 80.2998 559.5 77.0998C559.5 74.2998 560 71.9998 561 70.1998C562 68.3998 563.4 66.8998 565.2 65.8998C567 64.7998 569 63.9998 571.2 63.3998C573.4 62.7998 575.7 62.3998 578.1 62.1998C581 61.8998 583.3 61.5998 585.1 61.3998C586.9 61.1998 588.2 60.7998 589 60.1998C589.8 59.6998 590.2 58.8998 590.2 57.7998V57.5998C590.2 55.1998 589.5 53.2998 588.1 51.9998C586.7 50.6998 584.6 49.9998 581.9 49.9998C579.1 49.9998 576.8 50.5998 575.2 51.8998C573.5 53.0998 572.4 54.5998 571.9 56.2998L561.1 54.7998C562 51.7998 563.4 49.2998 565.3 47.2998C567.2 45.2998 569.7 43.7998 572.5 42.7998C575.3 41.7998 578.5 41.2998 581.9 41.2998C584.3 41.2998 586.6 41.5998 589 42.0998C591.3 42.6998 593.5 43.5998 595.4 44.7998C597.3 46.0998 598.9 47.7998 600.1 49.9998C601.3 52.1998 601.9 54.8998 601.9 58.0998V90.9998H590.8V84.2998H590.4C589.7 85.6998 588.7 86.8998 587.4 88.0998C586.1 89.2998 584.5 90.1998 582.6 90.8998C580.8 91.5998 578.6 91.8998 576 91.8998ZM579 83.3998C581.3 83.3998 583.3 82.8998 585 81.9998C586.7 81.0998 588 79.7998 588.9 78.2998C589.8 76.7998 590.3 75.0998 590.3 73.2998V67.4998C589.9 67.7998 589.3 68.0998 588.5 68.2998C587.6 68.5998 586.7 68.7998 585.6 68.9998C584.5 69.1998 583.5 69.3998 582.4 69.4998C581.4 69.5998 580.5 69.7998 579.7 69.8998C578 70.0998 576.4 70.4998 575.1 71.0998C573.7 71.5998 572.7 72.3998 571.9 73.2998C571.1 74.1998 570.7 75.4998 570.7 76.9998C570.7 79.0998 571.5 80.6998 573 81.7998C574.6 82.8998 576.6 83.3998 579 83.3998Z" fill="white"/>
<path d="M635 110.3C630.8 110.3 627.3 109.7 624.3 108.6C621.3 107.5 618.9 106 617.1 104.1C615.3 102.2 614 100.1 613.3 97.8999L623.7 95.3999C624.2 96.3999 624.9 97.3 625.7 98.3C626.6 99.2 627.8 100 629.3 100.7C630.8 101.3 632.7 101.6 635.1 101.6C638.4 101.6 641.1 100.8 643.3 99.2C645.5 97.6 646.5 94.9999 646.5 91.3999V82.1H646C645.4 83.3 644.5 84.5 643.4 85.8C642.3 87.1 640.8 88.1 638.9 89C637 89.9 634.7 90.3 631.9 90.3C628.1 90.3 624.7 89.4 621.7 87.6C618.6 85.8 616.2 83.2 614.4 79.6C612.6 76.1 611.7 71.6 611.7 66.3C611.7 60.9 612.6 56.4 614.4 52.6C616.2 48.9 618.6 46.1 621.7 44.1C624.8 42.2 628.2 41.2 632 41.2C634.9 41.2 637.2 41.7 639.1 42.7C641 43.7 642.5 44.8 643.6 46.2C644.7 47.6 645.5 48.8 646.1 50H646.7V41.9H658V91.8C658 96 657 99.5 655 102.2C653 104.9 650.3 107 646.8 108.4C643.3 109.7 639.4 110.3 635 110.3ZM635.1 81.1C637.6 81.1 639.6 80.5 641.4 79.3C643.2 78.1 644.4 76.4 645.3 74.2C646.2 72 646.6 69.3 646.6 66.1C646.6 63 646.2 60.3 645.3 58C644.4 55.7 643.1 53.9 641.4 52.6C639.7 51.3 637.6 50.7 635.1 50.7C632.5 50.7 630.4 51.4 628.6 52.7C626.9 54 625.6 55.9 624.7 58.2C623.8 60.5 623.4 63.2 623.4 66.1C623.4 69.1 623.8 71.7 624.7 74C625.6 76.2 626.9 78 628.6 79.2C630.3 80.4 632.5 81.1 635.1 81.1Z" fill="white"/>
<path d="M691.6 91.8999C686.7 91.8999 682.4 90.9 678.9 88.8C675.3 86.7 672.6 83.8 670.7 80C668.8 76.2 667.8 71.8 667.8 66.6C667.8 61.6 668.8 57.1 670.7 53.3C672.6 49.5 675.3 46.5 678.8 44.4C682.3 42.3 686.4 41.2 691 41.2C694 41.2 696.9 41.7 699.6 42.7C702.3 43.7 704.7 45.2 706.8 47.2C708.9 49.2 710.5 51.8 711.7 54.9C712.9 58 713.5 61.7 713.5 66V69.5H673.3V61.7H702.4C702.4 59.5 701.9 57.5 701 55.8C700.1 54.1 698.8 52.7 697.1 51.7C695.4 50.7 693.5 50.2 691.3 50.2C688.9 50.2 686.9 50.8 685.1 51.9C683.3 53 681.9 54.5 680.9 56.4C679.9 58.2 679.4 60.3 679.4 62.5V69.3C679.4 72.2 679.9 74.6 681 76.6C682 78.6 683.5 80.2 685.4 81.3C687.3 82.4 689.5 82.8999 692 82.8999C693.7 82.8999 695.2 82.7 696.6 82.2C698 81.7 699.1 81 700.1 80.1C701.1 79.2 701.9 78 702.4 76.6L713.2 77.8C712.5 80.7 711.2 83.1 709.3 85.3C707.4 87.5 705 89.1 702 90.2C698.8 91.3 695.4 91.8999 691.6 91.8999Z" fill="white"/>
</svg>
